<?xml version="1.0" encoding="UTF-8"?>
<svg width="100px" height="100px" viewBox="0 0 100 100" version="1.1" xmlns="http://www.w3.org/2000/svg" xmlns:xlink="http://www.w3.org/1999/xlink">
    <title>矩形</title>
    <g id="icon" stroke="none" stroke-width="1" fill="none" fill-rule="evenodd">
        <path d="M31.7930242,10 L68.2069758,10 C75.7848851,10 78.5328181,10.7890177 81.3031885,12.270628 C84.0735589,13.7522383 86.2477617,15.9264411 87.729372,18.6968115 C89.2109823,21.4671819 90,24.2151149 90,31.7930242 L90,68.2069758 C90,75.7848851 89.2109823,78.5328181 87.729372,81.3031885 C86.2477617,84.0735589 84.0735589,86.2477617 81.3031885,87.729372 C78.5328181,89.2109823 75.7848851,90 68.2069758,90 L31.7930242,90 C24.2151149,90 21.4671819,89.2109823 18.6968115,87.729372 C15.9264411,86.2477617 13.7522383,84.0735589 12.270628,81.3031885 C10.7890177,78.5328181 10,75.7848851 10,68.2069758 L10,31.7930242 C10,24.2151149 10.7890177,21.4671819 12.270628,18.6968115 C13.7522383,15.9264411 15.9264411,13.7522383 18.6968115,12.270628 C21.4671819,10.7890177 24.2151149,10 31.7930242,10 Z" id="矩形" fill="#FEF49C"></path>
    </g>
</svg>